<svg width="30" height="30" viewBox="0 0 30 30" fill="none" xmlns="http://www.w3.org/2000/svg">
<path d="M17.7484 14.9999L29.4298 3.31816C30.1901 2.55831 30.1901 1.32974 29.4298 0.569887C28.67 -0.189962 27.4414 -0.189962 26.6816 0.569887L14.9998 12.2516L3.31842 0.569887C2.55822 -0.189962 1.33 -0.189962 0.570154 0.569887C-0.190051 1.32974 -0.190051 2.55831 0.570154 3.31816L12.2516 14.9999L0.570154 26.6817C-0.190051 27.4415 -0.190051 28.6701 0.570154 29.4299C0.948833 29.809 1.44674 29.9994 1.94429 29.9994C2.44184 29.9994 2.93939 29.809 3.31842 29.4299L14.9998 17.7482L26.6816 29.4299C27.0606 29.809 27.5582 29.9994 28.0557 29.9994C28.5533 29.9994 29.0508 29.809 29.4298 29.4299C30.1901 28.6701 30.1901 27.4415 29.4298 26.6817L17.7484 14.9999Z" fill="#918699"/>
</svg>
