<svg width="50" height="50" viewBox="0 0 50 50" fill="none" xmlns="http://www.w3.org/2000/svg">
<g clip-path="url(#clip0)">
<path d="M25 45.6897C15.0017 45.6897 6.89651 37.5845 6.89651 27.5862C6.89651 17.588 15.0017 9.48279 25 9.48279C34.9982 9.48279 43.1034 17.588 43.1034 27.5862C43.0925 37.58 34.9937 45.6788 25 45.6897ZM25 11.2069C15.9539 11.2069 8.62065 18.5402 8.62065 27.5862C8.62065 36.6323 15.9539 43.9655 25 43.9655C34.046 43.9655 41.3793 36.6323 41.3793 27.5862C41.3693 18.5443 34.0419 11.2169 25 11.2069Z" fill="#3B97D3"/>
<path d="M6.46553 43.9655C6.33911 43.9658 6.21423 43.9378 6.10002 43.8836C5.89298 43.7866 5.73297 43.6112 5.65521 43.3962C5.57744 43.1812 5.58829 42.9441 5.68536 42.7371L6.91381 40.1207C7.12144 39.6992 7.62831 39.5216 8.05357 39.7214C8.47883 39.9211 8.66587 40.4245 8.47415 40.8534L7.24657 43.4698C7.10442 43.7726 6.79999 43.9658 6.46553 43.9655Z" fill="#95A5A5"/>
<path d="M43.5345 43.9655C43.2001 43.9658 42.8956 43.7726 42.7535 43.4698L41.5259 40.8534C41.3342 40.4245 41.5212 39.9211 41.9465 39.7214C42.3717 39.5216 42.8786 39.6992 43.0862 40.1207L44.3147 42.7371C44.4118 42.9441 44.4226 43.1812 44.3448 43.3962C44.2671 43.6112 44.1071 43.7866 43.9 43.8836C43.7858 43.9378 43.6609 43.9658 43.5345 43.9655Z" fill="#95A5A5"/>
<path d="M27.5862 1.72414V7.75862H22.4138V1.72414C22.4167 0.773102 23.1869 0.00284034 24.138 0H25.8621C26.8131 0.00284034 27.5834 0.773102 27.5862 1.72414Z" fill="#393F4A"/>
<path d="M9.82758 31.1292V31.1206L19.1724 11.3534L19.8276 9.96545V15.5172C19.824 16.5092 20.1118 17.4804 20.6552 18.3103L11.319 38.0775L10.1379 40.5775C9.78136 41.3305 9.02276 41.8105 8.18965 41.8103C7.87085 41.8087 7.55616 41.7381 7.26724 41.6034C7.24137 41.5861 7.21551 41.5775 7.18965 41.5603C6.16166 41.0286 5.74178 39.7766 6.24137 38.7327L7.51724 36.0258L9.82758 31.1292Z" fill="#F0C419"/>
<path d="M42.4828 36.0258L43.7587 38.7327C44.2583 39.7766 43.8384 41.0286 42.8104 41.5603C42.7845 41.5775 42.7587 41.5861 42.7328 41.6034C42.4439 41.7381 42.1292 41.8087 41.8104 41.8103C40.9773 41.8105 40.2187 41.3305 39.8621 40.5775L38.6811 38.0775L29.3449 18.3103C29.8883 17.4804 30.176 16.5092 30.1725 15.5172V9.96545L30.8276 11.3534L40.1725 31.1206V31.1292L42.4828 36.0258Z" fill="#F0C419"/>
<path d="M50 46.5517V48.2759C49.9972 49.2269 49.2269 49.9972 48.2759 50H1.72414C1.6694 50.0017 1.61461 49.9988 1.56034 49.9914H1.55172C0.671862 49.9006 0.0023791 49.1604 0 48.2759V46.5517C0.00284034 45.6007 0.773102 44.8304 1.72414 44.8276H48.2759C48.3306 44.8259 48.3854 44.8288 48.4397 44.8362C49.3214 44.926 49.994 45.6655 50 46.5517Z" fill="#E64C3C"/>
<path d="M30.1724 7.75856V15.5172C30.176 16.5092 29.8882 17.4804 29.3448 18.3103C28.3972 19.7925 26.7592 20.6894 25 20.6894C23.2407 20.6894 21.6028 19.7925 20.6551 18.3103C20.1117 17.4804 19.824 16.5092 19.8275 15.5172V7.75856C19.8304 6.80753 20.6006 6.03726 21.5517 6.03442H28.4482C29.3993 6.03726 30.1695 6.80753 30.1724 7.75856Z" fill="#464F5D"/>
<path d="M25 17.2414C25.9522 17.2414 26.7241 16.4694 26.7241 15.5172C26.7241 14.565 25.9522 13.7931 25 13.7931C24.0478 13.7931 23.2758 14.565 23.2758 15.5172C23.2758 16.4694 24.0478 17.2414 25 17.2414Z" fill="#BDC3C7"/>
<path d="M7.06898 44.8276L3.62071 50H1.72416C1.66941 50.0017 1.61463 49.9988 1.56036 49.9914L5.00002 44.8276H7.06898Z" fill="#C03A2B"/>
<path d="M12.2414 44.8276L8.79315 50H6.72418L10.1725 44.8276H12.2414Z" fill="#C03A2B"/>
<path d="M17.4138 44.8276L13.9655 50H11.8966L15.3449 44.8276H17.4138Z" fill="#C03A2B"/>
<path d="M22.5862 44.8276L19.138 50H17.069L20.5173 44.8276H22.5862Z" fill="#C03A2B"/>
<path d="M27.7586 44.8276L24.3104 50H22.2414L25.6897 44.8276H27.7586Z" fill="#C03A2B"/>
<path d="M32.9311 44.8276L29.4828 50H27.4138L30.8621 44.8276H32.9311Z" fill="#C03A2B"/>
<path d="M38.1034 44.8276L34.6551 50H32.5862L36.0345 44.8276H38.1034Z" fill="#C03A2B"/>
<path d="M43.2759 44.8276L39.8276 50H37.7587L41.2069 44.8276H43.2759Z" fill="#C03A2B"/>
<path d="M48.4397 44.8362L45 50H42.9311L46.3793 44.8276H48.2759C48.3306 44.8259 48.3854 44.8288 48.4397 44.8362Z" fill="#C03A2B"/>
<path d="M9.97413 34.1897C9.55672 35.2082 8.61228 35.914 7.51724 36.0259C7.19994 36.0509 6.88167 35.9914 6.59482 35.8535C5.41379 35.3017 5.02586 33.6552 5.71551 32.1897C6.40517 30.7242 7.92241 29.9742 9.09482 30.5259C9.38339 30.6623 9.63477 30.8663 9.82758 31.1207V31.1293C10.4293 32.0469 10.4854 33.2188 9.97413 34.1897Z" fill="#95A5A5"/>
<path d="M43.4051 35.8535C43.1183 35.9914 42.8 36.0509 42.4827 36.0259C41.3877 35.9141 40.4432 35.2082 40.0258 34.1897C39.5146 33.2188 39.5707 32.0469 40.1724 31.1294V31.1207C40.3652 30.8664 40.6166 30.6623 40.9051 30.5259C42.0775 29.9742 43.5948 30.7156 44.2844 32.1897C44.9741 33.6638 44.5861 35.3018 43.4051 35.8535Z" fill="#95A5A5"/>
</g>
<defs>
<clipPath id="clip0">
<rect width="50" height="50" fill="white"/>
</clipPath>
</defs>
</svg>
