<svg width="50" height="50" viewBox="0 0 50 50" fill="none" xmlns="http://www.w3.org/2000/svg">
<g clip-path="url(#clip0)">
<path d="M49.9023 24.9023C49.9023 29.9137 48.428 34.5799 45.8889 38.4922C45.0474 39.79 44.088 41.0046 43.0267 42.1207C42.5156 42.6594 41.98 43.1759 41.4219 43.6665C39.7491 45.1412 37.878 46.3944 35.8532 47.382C33.9829 48.2964 31.9809 48.9819 29.884 49.4053C29.0318 49.5777 28.1635 49.7074 27.2831 49.7902C26.4992 49.8646 25.7053 49.9023 24.9023 49.9023C24.1104 49.9023 23.328 49.8657 22.5555 49.7932C21.6862 49.7124 20.829 49.5869 19.9879 49.4186C19.4576 49.3137 18.9331 49.1913 18.4155 49.0513C16.5493 48.5523 14.7697 47.842 13.1035 46.9482C12.9299 46.8555 12.7563 46.7594 12.5858 46.6625C11.792 46.2124 11.026 45.7207 10.289 45.1889C7.04842 42.8501 4.38995 39.7545 2.57492 36.1607C0.865555 32.777 -0.0976562 28.9513 -0.0976562 24.9023C-0.0976562 20.8534 0.865555 17.0277 2.57492 13.644C4.52461 9.78508 7.44515 6.50024 11.0165 4.11034C11.6726 3.67088 12.3512 3.26157 13.0505 2.88506C13.0676 2.8759 13.0859 2.8656 13.1035 2.85645C16.6176 0.971604 20.6348 -0.0976562 24.9023 -0.0976562C27.0603 -0.0976562 29.1542 0.175858 31.1523 0.688935C31.2389 0.712586 31.3248 0.735092 31.4106 0.758362C31.6513 0.82283 31.8901 0.891113 32.1278 0.962448C37.8063 2.67372 42.6338 6.35147 45.8176 11.2022C46.1502 11.7096 46.4657 12.2299 46.7617 12.7617C48.7625 16.3563 49.9023 20.4964 49.9023 24.9023Z" fill="#515A6E"/>
<path d="M24.7944 9.26781C24.7944 9.38454 24.7921 9.50089 24.7891 9.61762C24.6365 15.1093 16.3582 15.1093 16.2048 9.61762C16.2014 9.50089 16.2007 9.38454 16.2007 9.26781C16.2007 7.56302 16.5455 5.93987 17.1715 4.46167C17.918 2.69432 19.0643 1.13678 20.4975 -0.0976562C23.1281 2.16866 24.7944 5.52254 24.7944 9.26781Z" fill="#E5D6B9"/>
<path d="M20.4975 13.736C18.3891 13.736 16.2807 12.3634 16.2045 9.61762C16.2014 9.50089 16.2003 9.38454 16.2003 9.26781C16.2003 7.56302 16.5455 5.93987 17.1715 4.46167C17.9176 2.69432 19.0643 1.13678 20.4975 -0.0976562C20.0909 1.13678 19.7659 2.69432 19.5534 4.46167C19.376 5.93987 19.2776 7.56302 19.2776 9.26781C19.2776 9.38454 19.2776 9.50089 19.2787 9.61762C19.3005 12.3634 19.8994 13.736 20.4975 13.736Z" fill="#D1A982"/>
<path d="M24.7943 9.26781C21.4431 10.7559 20.8881 5.85175 19.3664 7.37495C19.3496 7.39136 19.334 7.40738 19.3172 7.42188C17.8123 8.86421 16.3543 7.34329 17.1714 4.46167C17.918 2.69432 19.0643 1.13678 20.4975 -0.0976562C23.1281 2.16866 24.7943 5.52254 24.7943 9.26781Z" fill="#49AAB7"/>
<path d="M20.4976 -0.0976562C20.0909 1.13678 19.7659 2.69432 19.5534 4.46167C19.4416 5.39513 19.3612 6.38695 19.3173 7.42188C17.812 8.86421 16.354 7.34329 17.1715 4.46167C17.9177 2.69432 19.0644 1.13678 20.4976 -0.0976562Z" fill="#488089"/>
<path d="M23.8239 12.3882L23.3563 26.1543L22.5556 49.7932C21.6862 49.7123 20.829 49.5868 19.9879 49.4186C19.4576 49.3137 18.9331 49.1912 18.4155 49.0512L17.6392 26.1543L17.1719 12.3882H23.8239Z" fill="#5CBF96"/>
<path d="M19.9879 49.4186C19.4576 49.3137 18.9331 49.1912 18.4155 49.0512L17.6392 26.1543L17.1719 12.3882H19.68L19.7952 26.1543L19.9879 49.4186Z" fill="#529E5F"/>
<path d="M23.8236 12.3878L23.3566 26.1543H17.6392L17.1719 12.3878H23.8236Z" fill="#E6E6E6"/>
<path d="M19.7952 26.1543H17.6392L17.1719 12.3878H19.6804L19.7952 26.1543Z" fill="#CCCCCC"/>
<path d="M46.8147 11.2023L46.7617 12.7617L46.3585 24.6422L45.8889 38.4922C45.0474 39.79 44.088 41.0046 43.0267 42.1208C42.5156 42.6594 41.98 43.1759 41.4219 43.6665L40.7768 24.6422L40.3206 11.2023H46.8147Z" fill="#49AAB7"/>
<path d="M43.0267 42.1208C42.5156 42.6594 41.98 43.1759 41.4219 43.6665L40.7768 24.6422L40.3206 11.2023H42.7696L42.8818 24.6422L43.0267 42.1208Z" fill="#488089"/>
<path d="M46.8147 11.2026L46.3589 24.6426H40.7772L40.321 11.2026H46.8147Z" fill="#E6E6E6"/>
<path d="M42.8822 24.6426H40.7772L40.321 11.2026H42.77L42.8822 24.6426Z" fill="#CCCCCC"/>
<path d="M49.902 0.765991L48.341 6.04515L46.8155 11.2034H40.3214L38.0573 3.54805L38.0562 3.54652L37.2337 0.765991H49.902Z" fill="#E5D6B9"/>
<path d="M42.7692 11.2019L42.7673 11.2034H40.3214L38.0573 3.54805L38.0562 3.54652L37.2337 0.765991H40.6979L42.7692 11.2019Z" fill="#D1A982"/>
<path d="M49.902 0.765991L48.341 6.04515C47.7879 5.17502 47.2706 4.19464 46.2185 3.82157C43.7012 2.93236 44.0407 5.27459 41.9327 6.18287C41.8827 6.20461 41.8335 6.22368 41.7847 6.24276C39.7633 6.99959 38.5326 5.15595 38.0573 3.54805L38.0562 3.54653L37.2337 0.765991H49.902Z" fill="#EA7E5A"/>
<path d="M41.7847 6.24274C39.7633 6.99996 38.5326 5.15593 38.0573 3.54804L38.0562 3.54689L37.2337 0.766357H40.6979L41.7847 6.24274Z" fill="#D64F39"/>
<path d="M35.8532 8.01468V47.382C33.9829 48.2964 31.9809 48.9819 29.884 49.4053C29.0318 49.5777 28.1635 49.7074 27.2831 49.7902V8.01468L29.7226 3.39623L31.1524 0.688935L31.5678 -0.0976562L32.1278 0.962448L33.4137 3.39623L35.8532 8.01468Z" fill="#F7D65E"/>
<path d="M35.8555 8.01964C34.5745 8.69751 33.1146 9.08089 31.5666 9.08089C31.0024 9.08089 30.4482 9.03015 29.9114 8.93211C28.9768 8.7616 28.0922 8.45032 27.2808 8.01964L31.5666 -0.0976562L31.5674 -0.0965118L35.8555 8.01964Z" fill="#E5D6B9"/>
<path d="M31.5678 -0.0976562L31.4106 0.758362L29.884 9.08089V49.4053C29.0318 49.5777 28.1635 49.7074 27.2831 49.7902V8.01468L29.7226 3.39623L31.1524 0.688935L31.5678 -0.0976562Z" fill="#D1A22A"/>
<path d="M31.5674 -0.0965118L29.9114 8.93211C28.9768 8.7616 28.0922 8.45032 27.2808 8.01964L31.5666 -0.0976562L31.5674 -0.0965118Z" fill="#D1A982"/>
<path d="M33.4133 3.39623C32.8625 3.68805 32.2338 3.85361 31.5674 3.85361C31.3236 3.85361 31.0848 3.83186 30.8544 3.78914C30.4523 3.7159 30.0716 3.582 29.7226 3.39623L31.5674 -0.0976562L33.4133 3.39623Z" fill="#ED5972"/>
<path d="M31.5674 -0.0976562L30.8544 3.78914C30.4523 3.7159 30.0716 3.582 29.7226 3.39623L31.5674 -0.0976562Z" fill="#D8375A"/>
<path d="M13.1035 -0.0976562V46.9482C12.9299 46.8555 12.7563 46.7594 12.5858 46.6625C11.792 46.2124 11.026 45.7207 10.289 45.1889C7.04842 42.8501 4.38995 39.7545 2.57492 36.1607V-0.0976562L13.1035 -0.0976562Z" fill="#EA7E5A"/>
<path d="M8.71658 2.63708H13.0501V4.11032H8.71658V2.63708Z" fill="#D64F39"/>
<path d="M8.71658 7.36499H13.0501V8.83861H8.71658V7.36499Z" fill="#D64F39"/>
<path d="M8.71658 12.093H13.0501V13.5666H8.71658V12.093Z" fill="#D64F39"/>
<path d="M8.71658 16.8209H13.0501V18.2942H8.71658V16.8209Z" fill="#D64F39"/>
<path d="M8.71658 21.5488H13.0501V23.0221H8.71658V21.5488Z" fill="#D64F39"/>
<path d="M8.71658 26.2767H13.0501V27.75H8.71658V26.2767Z" fill="#D64F39"/>
<path d="M8.71658 31.0048H13.0501V32.4784H8.71658V31.0048Z" fill="#D64F39"/>
<path d="M8.71658 35.7327H13.0501V37.2063H8.71658V35.7327Z" fill="#D64F39"/>
<path d="M8.71658 40.4606H13.0501V41.9342H8.71658V40.4606Z" fill="#D64F39"/>
<path d="M13.0505 45.1888V46.6625H12.5858C11.792 46.2123 11.026 45.7206 10.289 45.1888H13.0505Z" fill="#D64F39"/>
</g>
<defs>
<clipPath id="clip0">
<rect width="50" height="50" fill="white"/>
</clipPath>
</defs>
</svg>
