<svg width="619" height="619" viewBox="0 0 619 619" fill="none" xmlns="http://www.w3.org/2000/svg">
<path d="M439.443 608.693H179.557C160.151 608.693 144.428 592.96 144.428 573.564V45.4361C144.428 26.0298 160.161 10.3066 179.557 10.3066H439.433C458.839 10.3066 474.562 26.0401 474.562 45.4361V573.553C474.572 592.96 458.839 608.693 439.443 608.693Z" fill="white"/>
<path d="M339.951 557.108C339.951 573.926 326.318 587.559 309.5 587.559C292.683 587.559 279.049 573.926 279.049 557.108C279.049 540.291 292.683 526.657 309.5 526.657C326.318 526.657 339.951 540.291 339.951 557.108Z" fill="white" stroke="#B2B0BC"/>
<path d="M309.5 51.5747H268.232C262.527 51.5747 257.915 46.963 257.915 41.2577C257.915 35.5523 262.527 30.9406 268.232 30.9406H309.5C315.206 30.9406 319.817 35.5523 319.817 41.2577C319.817 46.963 315.206 51.5747 309.5 51.5747Z" fill="#424A60"/>
<path d="M350.768 51.5747H340.451C334.746 51.5747 330.134 46.963 330.134 41.2577C330.134 35.5523 334.746 30.9406 340.451 30.9406H350.768C356.474 30.9406 361.085 35.5523 361.085 41.2577C361.085 46.963 356.474 51.5747 350.768 51.5747Z" fill="#424A60"/>
<path d="M576.758 219.144C574.117 219.144 571.476 218.133 569.464 216.121C565.43 212.087 565.43 205.566 569.464 201.532C608.008 162.988 608.008 100.271 569.464 61.7164C565.43 57.6824 565.43 51.1621 569.464 47.1281C573.498 43.0942 580.018 43.0942 584.052 47.1281C630.644 93.7197 630.644 169.529 584.052 216.121C582.04 218.143 579.399 219.144 576.758 219.144Z" fill="#918699"/>
<path d="M533.314 198.51C530.673 198.51 528.031 197.498 526.02 195.487C521.986 191.453 521.986 184.932 526.02 180.898C538.782 168.147 545.808 151.144 545.808 133.048C545.808 114.952 538.782 97.9599 526.02 85.1875C521.986 81.1535 521.986 74.6332 526.02 70.5992C530.054 66.5653 536.574 66.5653 540.608 70.5992C557.27 87.2509 566.442 109.443 566.442 133.048C566.442 156.653 557.27 178.835 540.608 195.487C538.596 197.509 535.955 198.51 533.314 198.51Z" fill="#918699"/>
<path d="M42.2378 219.144C39.5967 219.144 36.9555 218.133 34.9437 216.121C-11.6479 169.529 -11.6479 93.7197 34.9437 47.1281C38.9777 43.0942 45.498 43.0942 49.532 47.1281C53.5659 51.1621 53.5659 57.6824 49.532 61.7164C10.9876 100.261 10.9876 162.978 49.532 201.532C53.5659 205.566 53.5659 212.087 49.532 216.121C47.5098 218.143 44.879 219.144 42.2378 219.144Z" fill="#918699"/>
<path d="M85.6805 195.672C83.0394 195.672 80.3982 194.661 78.3864 192.65C61.7244 175.998 52.5526 153.806 52.5526 130.201C52.5526 106.595 61.7244 84.4138 78.3864 67.7621C82.4204 63.7282 88.9407 63.7282 92.9747 67.7621C97.0086 71.7961 97.0086 78.3164 92.9747 82.3504C80.2125 95.1022 73.1866 112.105 73.1866 130.201C73.1866 148.297 80.2125 165.289 92.9747 178.061C97.0086 182.095 97.0086 188.616 92.9747 192.65C90.9525 194.661 88.3217 195.672 85.6805 195.672Z" fill="#918699"/>
<path d="M474.572 72.2087H144.428V505.523H474.572V72.2087Z" fill="#E5E5E5"/>
</svg>
